<svg width="24" height="24" viewBox="0 0 24 24" fill="currentColor" xmlns="http://www.w3.org/2000/svg">
    <g clip-path="url(#clip0_801_480)">
        <path
            d="M16.074 16.86C15.354 17.476 13.917 17.895 12.262 17.895C10.23 17.895 8.52702 17.263 8.07502 16.412C7.91402 16.9 7.87702 17.458 7.87702 17.814C7.87702 17.814 7.77102 19.564 8.98802 20.782C8.98802 20.15 9.50102 19.637 10.133 19.637C11.216 19.637 11.215 20.582 11.214 21.349V21.418C11.214 22.582 11.925 23.579 12.937 24C12.7812 23.6794 12.7005 23.3275 12.701 22.971C12.701 21.861 13.353 21.448 14.111 20.968C14.713 20.585 15.383 20.161 15.844 19.308C16.0926 18.8493 16.2225 18.3357 16.222 17.814C16.2222 17.4903 16.1722 17.1685 16.074 16.86ZM15.551 0.6C15.747 0.844 15.847 1.172 16.047 1.829L20.415 16.176C18.7744 15.3246 17.0134 14.7284 15.193 14.408L12.35 4.8C12.3273 4.72337 12.2803 4.65616 12.2162 4.60844C12.1521 4.56072 12.0742 4.53505 11.9943 4.53528C11.9143 4.5355 11.8366 4.56161 11.7728 4.60969C11.7089 4.65777 11.6623 4.72524 11.64 4.802L8.83002 14.405C7.00151 14.724 5.23267 15.3213 3.58502 16.176L7.97402 1.827C8.17402 1.171 8.27402 0.843 8.47102 0.6C8.64408 0.385433 8.86925 0.218799 9.12502 0.116C9.41502 0 9.75702 0 10.443 0H13.578C14.264 0 14.608 0 14.898 0.117C15.1529 0.219851 15.3784 0.386105 15.551 0.6Z" />
    </g>
    <defs>
        <clipPath id="clip0_801_480">
            <rect width="24" height="24" fill="white" />
        </clipPath>
    </defs>
</svg>