<svg width="30" height="18" viewBox="0 0 30 18" fill="currentColor" xmlns="http://www.w3.org/2000/svg">
    <g clip-path="url(#clip0_801_486)">
        <path
            d="M5.58273 0.01319C4.22273 0.01319 2.84273 0.54319 2.61273 0.83319C2.55273 0.95319 2.41273 1.92319 2.74273 1.92319C2.85273 1.92319 2.90273 1.94319 3.22273 1.79319C4.42273 1.32319 5.18273 1.33319 5.29273 1.33319C6.64273 1.20319 7.42273 2.12319 7.30273 3.31319V4.01319C6.16273 3.74319 5.51273 3.73319 5.19273 3.73319C3.53273 3.63319 1.99873 4.50919 1.99873 6.43319C1.99873 8.54319 3.88173 8.99319 4.61173 8.96319C5.70173 8.97319 6.74173 8.48319 7.43173 7.63319C7.98173 8.86319 8.33173 8.78319 8.34173 8.78319C8.44173 8.78319 8.52172 8.74319 8.60172 8.69319L9.17173 8.29319C9.27173 8.23319 9.35172 8.13319 9.36172 8.01319C9.35172 7.72319 8.83173 7.27319 8.87173 6.26319V3.14319C8.90296 2.71792 8.84832 2.29071 8.71106 1.88699C8.57379 1.48327 8.35671 1.11129 8.07273 0.79319C7.37842 0.214338 6.48319 -0.0660965 5.58273 0.01319ZM24.9557 0.01319C22.9557 0.01319 21.8057 1.26319 21.8357 2.53319C21.8357 4.27319 23.5957 4.82319 23.7957 4.88319C25.4857 5.41319 25.7157 5.43319 26.1857 5.83319C26.5857 6.24319 26.5357 7.04319 25.9457 7.39319C25.7757 7.49319 25.0457 7.93319 23.3957 7.59319C22.8457 7.48319 22.5557 7.35319 22.1057 7.16319C21.9857 7.12319 21.7057 7.05319 21.7057 7.42319V7.91319C21.7057 8.14319 21.8457 8.35319 22.0557 8.45319C23.1057 8.98319 24.3657 9.00319 24.6357 9.00319C24.6757 9.00319 26.9757 9.00419 27.7457 7.45319C27.9037 7.13319 28.3157 5.96319 27.5457 4.96319C26.9057 4.21319 26.3557 4.13319 24.7157 3.63319C24.5757 3.59319 23.3657 3.28319 23.3757 2.43319C23.3157 1.34319 24.7957 1.28319 25.1057 1.30319C26.3557 1.28319 26.9757 1.75319 27.3157 1.78319C27.4657 1.78319 27.5357 1.69319 27.5357 1.49319V1.03319C27.5418 0.922629 27.5101 0.813287 27.4457 0.72319C27.0457 0.20319 25.5157 0.01319 24.9557 0.01319ZM9.77573 0.26319C9.66573 0.28319 9.58573 0.39319 9.60573 0.50319C9.62573 0.63319 9.64572 0.76319 9.69572 0.89319L11.9357 8.28319C11.9857 8.52319 12.1457 8.78319 12.4957 8.74319H13.3157C13.8157 8.79319 13.8857 8.31319 13.8957 8.26319L15.3657 2.10319L16.8557 8.27319C16.8657 8.32319 16.9357 8.80319 17.4257 8.75319H18.2557C18.6157 8.79319 18.7857 8.53319 18.8357 8.29319C21.3557 0.183191 21.1857 0.733189 21.2057 0.653189C21.2457 0.233189 21.0057 0.26319 20.9657 0.27319H20.0757C19.6257 0.22319 19.5357 0.633189 19.5157 0.733189L17.8557 7.14319L16.3557 0.733189C16.2857 0.243189 15.8857 0.26319 15.7857 0.27319H15.0157C14.5757 0.23319 14.4657 0.583189 14.4357 0.733189L12.9457 7.05319L11.3457 0.733189C11.3057 0.533189 11.1757 0.22319 10.7857 0.26319H9.77573ZM5.52173 4.89319C6.24173 4.90319 6.86373 5.01319 7.29373 5.11319C7.29373 5.61319 7.31173 5.89319 7.20173 6.34319C7.06173 6.82319 6.44273 7.69319 4.98273 7.71319C4.14273 7.75319 3.59273 7.09319 3.64273 6.34319C3.59273 5.14319 4.83273 4.84319 5.52273 4.89319H5.52173ZM28.0397 11.0052C27.1067 11.0182 26.0047 11.2272 25.1687 11.8142C24.9107 11.9932 24.9557 12.2412 25.2427 12.2082C26.1827 12.0952 28.2747 11.8412 28.6487 12.3192C29.0237 12.7972 28.2347 14.7692 27.8857 15.6512C27.7777 15.9142 28.0057 16.0232 28.2467 15.8232C29.8107 14.5132 30.2167 11.7672 29.8967 11.3732C29.7367 11.1752 28.9727 10.9922 28.0397 11.0052ZM0.215725 12.0052C-0.00227462 12.0352 -0.0962746 12.3112 0.131725 12.5302C4.04873 16.2042 9.22472 18.0032 14.9717 18.0032C19.0707 18.0032 23.8287 16.6662 27.1137 14.1462C27.6567 13.7262 27.1937 13.0992 26.6377 13.3462C22.9547 14.9722 18.9537 15.7552 15.3127 15.7552C9.91672 15.7552 4.69273 14.6282 0.467725 12.0692C0.393519 12.0197 0.304573 11.9971 0.215725 12.0052Z" />
    </g>
    <defs>
        <clipPath id="clip0_801_486">
            <rect width="30" height="18" fill="white" />
        </clipPath>
    </defs>
</svg>