<svg width="104" height="104" viewBox="0 0 104 104" fill="currentColor" xmlns="http://www.w3.org/2000/svg">
    <path
        d="M56.7897 99H29.517V5.90909H58.4261C67.3049 5.90909 74.8958 7.75757 81.1988 11.4545C87.5321 15.1515 92.3806 20.4545 95.7443 27.3636C99.1079 34.2727 100.79 42.5606 100.79 52.2273C100.79 61.9848 99.0624 70.3636 95.6079 77.3636C92.1837 84.3333 87.1837 89.6818 80.6079 93.4091C74.0624 97.1364 66.1231 99 56.7897 99ZM38.017 91.3636H56.2897C64.2897 91.3636 70.9867 89.7879 76.3806 86.6364C81.7746 83.4848 85.82 78.9848 88.517 73.1364C91.214 67.2879 92.5625 60.3182 92.5625 52.2273C92.5321 44.197 91.1988 37.2879 88.5625 31.5C85.9564 25.7121 82.0776 21.2727 76.9261 18.1818C71.8049 15.0909 65.4715 13.5454 57.9261 13.5454H38.017V91.3636Z"
        fill="url(#paint0_linear_22_1256)" />
    <path
        d="M12.8977 99V5.90909H42.9432C49.5492 5.90909 55.0644 7.10606 59.4886 9.5C63.9432 11.8636 67.2917 15.1515 69.5341 19.3636C71.8068 23.5455 72.9432 28.3485 72.9432 33.7727C72.9432 39.197 71.8068 43.9848 69.5341 48.1364C67.2917 52.2879 63.9583 55.5303 59.5341 57.8636C55.1099 60.197 49.625 61.3636 43.0795 61.3636H17.4886V53.5909H42.8523C47.7008 53.5909 51.7311 52.7879 54.9432 51.1818C58.1856 49.5758 60.5947 47.2879 62.1705 44.3182C63.7765 41.3485 64.5795 37.8333 64.5795 33.7727C64.5795 29.7121 63.7765 26.1667 62.1705 23.1364C60.5644 20.0758 58.1402 17.7121 54.8977 16.0454C51.6856 14.3788 47.625 13.5454 42.7159 13.5454H21.3977V99H12.8977ZM53.9432 57L76.8523 99H67.0341L44.3523 57H53.9432Z"
        fill="url(#paint1_linear_22_1256)" />
    <defs>
        <linearGradient id="paint0_linear_22_1256" x1="63.0909" y1="-3.54545" x2="63.0909" y2="41.3636"
            gradientUnits="userSpaceOnUse">
            <stop stop-color="#0B192E" />
            <stop offset="1" stop-color="#732580" />
        </linearGradient>
        <linearGradient id="paint1_linear_22_1256" x1="42.6877" y1="56.7273" x2="42.6877" y2="111.091"
            gradientUnits="userSpaceOnUse">
            <stop stop-color="#732580" />
            <stop offset="1" stop-color="#0B192E" />
        </linearGradient>
    </defs>
</svg>