<svg width="27" height="30" viewBox="0 0 27 30" fill="none" xmlns="http://www.w3.org/2000/svg">
<path d="M18.2418 27.5C17.9439 27.5 17.6582 27.3683 17.4476 27.1339C17.2369 26.8995 17.1186 26.5815 17.1186 26.25V23C17.1535 22.6262 17.1175 22.2483 17.0131 21.8909C16.9086 21.5335 16.7379 21.2044 16.512 20.925C16.3722 20.7562 16.2768 20.5478 16.2364 20.3227C16.1959 20.0976 16.212 19.8644 16.2827 19.6488C16.3535 19.4332 16.4763 19.2434 16.6376 19.1003C16.7989 18.9572 16.9925 18.8662 17.1972 18.8375C19.938 18.475 22.4653 17.5 22.4653 12.2125C22.4662 11.2251 22.2043 10.2595 21.7127 9.4375C21.2591 8.68079 21.0935 7.75484 21.2522 6.8625C21.3534 6.2804 21.3534 5.6821 21.2522 5.1C20.4111 5.41647 19.6192 5.87609 18.9046 6.4625C18.7695 6.56927 18.6148 6.64145 18.4517 6.67387C18.2885 6.70628 18.121 6.69813 17.961 6.65C15.9339 6.01257 13.7877 6.01257 11.7606 6.65C11.6006 6.69813 11.4331 6.70628 11.27 6.67387C11.1068 6.64145 10.9522 6.56927 10.8171 6.4625C10.0981 5.8693 9.29776 5.40921 8.44696 5.1C8.34015 5.68149 8.34015 6.28102 8.44696 6.8625C8.59421 7.76607 8.42109 8.69798 7.96396 9.4625C7.47451 10.2903 7.21294 11.2591 7.21137 12.25C7.21137 17.1125 9.32311 18.4125 12.4907 18.8625C12.698 18.8911 12.894 18.9835 13.0567 19.1292C13.2194 19.275 13.3424 19.4683 13.4118 19.6875C13.4771 19.9002 13.4897 20.1286 13.4482 20.3486C13.4066 20.5685 13.3126 20.772 13.1759 20.9375C12.9574 21.1974 12.7897 21.5048 12.6834 21.8405C12.5771 22.1761 12.5344 22.5326 12.5581 22.8875V26.25C12.5581 26.5815 12.4398 26.8995 12.2291 27.1339C12.0185 27.3683 11.7328 27.5 11.4349 27.5C11.1369 27.5 10.8512 27.3683 10.6406 27.1339C10.4299 26.8995 10.3116 26.5815 10.3116 26.25V25.5375C9.20782 25.6788 8.0898 25.5142 7.05702 25.0584C6.02423 24.6026 5.10873 23.8697 4.39198 22.925C4.02355 22.4706 3.58152 22.0974 3.08899 21.825C2.9459 21.784 2.81148 21.712 2.6934 21.6131C2.57532 21.5143 2.47589 21.3905 2.40079 21.2489C2.3257 21.1073 2.2764 20.9506 2.25571 20.7878C2.23502 20.625 2.24336 20.4592 2.28023 20.3C2.31711 20.1408 2.38181 19.9912 2.47064 19.8598C2.55946 19.7284 2.67068 19.6177 2.79793 19.5342C2.92518 19.4506 3.06598 19.3957 3.21228 19.3727C3.35859 19.3497 3.50754 19.359 3.65062 19.4C4.51469 19.7503 5.28677 20.3345 5.89715 21.1C7.02042 22.35 8.14368 23.45 10.2779 23C10.2404 22.3289 10.3283 21.6564 10.5362 21.025C8.22231 20.375 4.91991 18.525 4.91991 12.275C4.91695 10.7945 5.30778 9.34622 6.04318 8.1125C6.17977 7.88476 6.23208 7.60712 6.1892 7.3375C5.96222 5.98822 6.09096 4.59467 6.55988 3.325C6.62359 3.15571 6.72003 3.0041 6.84233 2.88096C6.96464 2.75782 7.10981 2.66616 7.26754 2.6125C7.64945 2.4875 9.01983 2.2375 11.6146 4.1125C13.7151 3.55001 15.9055 3.55001 18.006 4.1125C20.6007 2.2375 21.9711 2.475 22.3418 2.6125C22.4995 2.66616 22.6447 2.75782 22.767 2.88096C22.8893 3.0041 22.9857 3.15571 23.0494 3.325C23.5193 4.59879 23.648 5.99663 23.4201 7.35C23.3971 7.47194 23.3962 7.59776 23.4174 7.7201C23.4386 7.84243 23.4816 7.95884 23.5437 8.0625C24.2812 9.29976 24.6721 10.7528 24.6669 12.2375C24.6669 18.575 21.387 20.4125 19.0506 20.9875C19.2564 21.6583 19.3404 22.3678 19.2977 23.075V26.25C19.2982 26.5689 19.1892 26.876 18.9929 27.1084C18.7966 27.3408 18.5279 27.4809 18.2418 27.5Z" fill="#732580"/>
</svg>
