<svg width="24" height="24" viewBox="0 0 24 24" fill="currentColor" xmlns="http://www.w3.org/2000/svg">
    <g clip-path="url(#clip0_204_698)">
        <path
            d="M12.6153 21.0768C12.477 21.0776 12.3398 21.0511 12.2117 20.9988C12.0836 20.9465 11.9671 20.8694 11.8689 20.7719L3.70048 12.593C2.67587 11.5577 2.10114 10.1599 2.10114 8.70328C2.10114 7.24667 2.67587 5.84888 3.70048 4.81356C4.73311 3.78385 6.13191 3.2056 7.5902 3.2056C9.0485 3.2056 10.4473 3.78385 11.4799 4.81356L12.6153 5.94894L13.7507 4.81356C14.7833 3.78385 16.1821 3.2056 17.6404 3.2056C19.0987 3.2056 20.4975 3.78385 21.5301 4.81356C22.5547 5.84888 23.1295 7.24667 23.1295 8.70328C23.1295 10.1599 22.5547 11.5577 21.5301 12.593L13.3617 20.7719C13.2635 20.8694 13.147 20.9465 13.0189 20.9988C12.8908 21.0511 12.7537 21.0776 12.6153 21.0768ZM7.5902 5.30766C7.14517 5.30565 6.70417 5.39195 6.29273 5.56158C5.88129 5.73121 5.5076 5.98079 5.19329 6.29586C4.55839 6.93411 4.20198 7.79777 4.20198 8.69803C4.20198 9.59829 4.55839 10.4619 5.19329 11.1002L12.6153 18.5327L20.0373 11.1002C20.6722 10.4619 21.0286 9.59829 21.0286 8.69803C21.0286 7.79777 20.6722 6.93411 20.0373 6.29586C19.3894 5.68371 18.5318 5.34267 17.6404 5.34267C16.749 5.34267 15.8914 5.68371 15.2435 6.29586L13.3617 8.18816C13.264 8.28669 13.1477 8.3649 13.0196 8.41828C12.8915 8.47165 12.7541 8.49913 12.6153 8.49913C12.4765 8.49913 12.3391 8.47165 12.211 8.41828C12.0829 8.3649 11.9666 8.28669 11.8689 8.18816L9.98712 6.29586C9.67281 5.98079 9.29912 5.73121 8.88768 5.56158C8.47624 5.39195 8.03524 5.30565 7.5902 5.30766Z" />
    </g>
    <defs>
        <clipPath id="clip0_204_698">
            <rect width="24" height="24" fill="white" />
        </clipPath>
    </defs>
</svg>