<svg width="30" height="34" viewBox="0 0 30 34" fill="none" xmlns="http://www.w3.org/2000/svg">
<path d="M25 31.0184H22.9125C22.2495 31.0184 21.6136 30.7253 21.1447 30.2036C20.6759 29.6818 20.4125 28.9742 20.4125 28.2363V20.7665C20.4237 20.4735 20.3441 20.1852 20.1871 19.9497C20.0301 19.7142 19.8052 19.5459 19.55 19.4728C19.4015 19.4477 19.25 19.4583 19.1055 19.5038C18.961 19.5494 18.827 19.629 18.7125 19.7371C18.5947 19.8484 18.5001 19.987 18.4353 20.1431C18.3705 20.2993 18.3372 20.4693 18.3375 20.6413V28.2363C18.3375 28.9742 18.0741 29.6818 17.6053 30.2036C17.1364 30.7253 16.5005 31.0184 15.8375 31.0184H13.75C13.087 31.0184 12.4511 30.7253 11.9822 30.2036C11.5134 29.6818 11.25 28.9742 11.25 28.2363V20.6413C11.25 19.4539 11.4602 18.2782 11.8685 17.1812C12.2768 16.0842 12.8753 15.0874 13.6298 14.2478C14.3842 13.4082 15.2799 12.7422 16.2657 12.2878C17.2515 11.8335 18.308 11.5996 19.375 11.5996C20.442 11.5996 21.4985 11.8335 22.4843 12.2878C23.4701 12.7422 24.3658 13.4082 25.1202 14.2478C25.8747 15.0874 26.4732 16.0842 26.8815 17.1812C27.2898 18.2782 27.5 19.4539 27.5 20.6413V28.2363C27.5 28.9742 27.2366 29.6818 26.7678 30.2036C26.2989 30.7253 25.663 31.0184 25 31.0184ZM19.375 16.6769C19.5706 16.6631 19.7669 16.6631 19.9625 16.6769C20.8017 16.8565 21.5573 17.3592 22.0967 18.0969C22.6361 18.8345 22.9249 19.7599 22.9125 20.7109V28.2363H25V20.6413C25 18.9811 24.4074 17.389 23.3525 16.2151C22.2976 15.0412 20.8668 14.3817 19.375 14.3817C17.8832 14.3817 16.4524 15.0412 15.3975 16.2151C14.3426 17.389 13.75 18.9811 13.75 20.6413V28.2363H15.8375V20.6413C15.8375 19.5947 16.2094 18.5905 16.8721 17.8478C17.5348 17.1051 18.4345 16.6842 19.375 16.6769Z" fill="#732580"/>
<path d="M7.5 31.0184H5C4.33696 31.0184 3.70107 30.7253 3.23223 30.2036C2.76339 29.6818 2.5 28.9742 2.5 28.2363V14.326C2.5 13.5882 2.76339 12.8805 3.23223 12.3588C3.70107 11.8371 4.33696 11.5439 5 11.5439H7.5C8.16304 11.5439 8.79893 11.8371 9.26777 12.3588C9.73661 12.8805 10 13.5882 10 14.326V28.2363C10 28.9742 9.73661 29.6818 9.26777 30.2036C8.79893 30.7253 8.16304 31.0184 7.5 31.0184ZM5 14.326V28.2363H7.5V14.326H5Z" fill="#732580"/>
<path d="M6.25 10.1529C5.50832 10.1529 4.7833 9.90816 4.16661 9.44961C3.54993 8.99107 3.06928 8.33932 2.78545 7.57678C2.50162 6.81425 2.42736 5.97518 2.57206 5.16568C2.71675 4.35617 3.0739 3.6126 3.59835 3.02898C4.1228 2.44536 4.79098 2.04791 5.51841 1.88689C6.24584 1.72587 6.99984 1.80851 7.68507 2.12437C8.37029 2.44022 8.95596 2.97509 9.36801 3.66136C9.78007 4.34762 10 5.15445 10 5.97981C10 7.08658 9.60491 8.14803 8.90165 8.93063C8.19839 9.71324 7.24456 10.1529 6.25 10.1529ZM6.25 4.58877C6.00278 4.58877 5.7611 4.67036 5.55554 4.82321C5.34998 4.97605 5.18976 5.1933 5.09515 5.44748C5.00054 5.70166 4.97579 5.98135 5.02402 6.25118C5.07225 6.52102 5.1913 6.76888 5.36612 6.96342C5.54093 7.15796 5.76366 7.29044 6.00614 7.34411C6.24862 7.39779 6.49995 7.37024 6.72836 7.26495C6.95676 7.15967 7.15199 6.98138 7.28934 6.75262C7.42669 6.52387 7.5 6.25493 7.5 5.97981C7.5 5.61088 7.36831 5.25707 7.13389 4.9962C6.89947 4.73533 6.58152 4.58877 6.25 4.58877Z" fill="#732580"/>
</svg>
