<svg width="42" height="42" viewBox="0 0 42 42" fill="currentColor" xmlns="http://www.w3.org/2000/svg">
    <g clip-path="url(#clip0_716_1387)">
        <g clip-path="url(#clip1_716_1387)">
            <path
                d="M24.7489 1.06201C24.4534 1.06201 24.1783 1.12522 23.9238 1.21064C24.4636 1.56939 24.7609 2.04772 24.9078 2.58755C24.9198 2.66101 24.9403 2.71397 24.9505 2.78743C24.9632 2.85048 24.9706 2.91448 24.9727 2.97876C25.0137 3.9098 24.7284 4.02768 24.5285 4.57776C24.221 5.28672 24.3065 6.04864 24.6755 6.66193C24.7093 6.74417 24.7516 6.82262 24.8019 6.89597C24.4004 4.2173 26.6349 3.81585 27.0466 2.97876C27.0791 2.2476 26.476 1.76072 25.9994 1.42247C25.6249 1.18711 25.1913 1.06272 24.7489 1.06372V1.06201ZM28.116 1.66505C28.075 1.90935 28.1058 1.84614 28.0955 1.97255C28.0853 2.05797 28.0853 2.16389 28.075 2.2476C28.0528 2.33301 28.0323 2.41843 27.9999 2.50214C27.9794 2.58755 27.9486 2.67297 27.9145 2.75668L27.8 2.99926C27.7658 3.04197 27.747 3.08468 27.7146 3.12739L27.6514 3.22135C27.601 3.29384 27.548 3.3645 27.4925 3.43318C27.4293 3.4981 27.3763 3.57155 27.3012 3.62451V3.63476C27.238 3.68772 27.1748 3.75093 27.0996 3.8056C26.8775 3.97472 26.6247 4.10114 26.3906 4.26001C26.3172 4.31126 26.242 4.35568 26.1788 4.41889C26.1069 4.46944 26.0395 4.52602 25.9772 4.58801C25.9038 4.65122 25.8508 4.71443 25.7876 4.7896C25.7346 4.8528 25.6714 4.92626 25.6287 5.00143C25.5755 5.07296 25.5259 5.14708 25.4801 5.22351C25.4374 5.30893 25.4066 5.38239 25.3639 5.4661C25.3315 5.55151 25.3007 5.62497 25.2785 5.71039C25.2505 5.79763 25.226 5.88597 25.205 5.97518C25.1948 6.01789 25.1948 6.07085 25.1845 6.11185C25.1726 6.15455 25.1726 6.19726 25.1623 6.23997C25.1623 6.32539 25.1521 6.41935 25.1521 6.50476C25.1521 6.56797 25.1521 6.63118 25.1623 6.69439C25.1623 6.7798 25.1726 6.86522 25.1948 6.95918C25.205 7.0446 25.2255 7.13001 25.246 7.21543C25.2802 7.29914 25.3007 7.38285 25.3315 7.46826C25.3537 7.51951 25.3844 7.57418 25.4066 7.61689L22.9705 6.67389C22.5588 6.55772 22.1557 6.4518 21.7423 6.35614L21.076 6.19726C20.4405 6.07085 19.7948 5.97518 19.149 5.91197C19.1268 5.91197 19.1165 5.90172 19.096 5.90172C18.0049 5.79241 16.9063 5.77812 15.8126 5.85901C15.1669 5.90172 14.5211 5.98543 13.8754 6.09135C13.3955 6.17403 12.9186 6.27317 12.4455 6.3886L11.9689 6.51501C11.8117 6.57822 11.6614 6.65168 11.5145 6.7166L11.1643 6.87547C11.1438 6.88572 11.1233 6.88572 11.113 6.89597C11.0054 6.94893 10.9114 6.99164 10.8158 7.0446C10.6782 7.10527 10.5437 7.17254 10.4126 7.24618C10.3391 7.27693 10.2657 7.31964 10.2008 7.3521C10.1704 7.37092 10.139 7.38803 10.1068 7.40335C10.0111 7.45801 9.91546 7.51097 9.83004 7.56393C9.74286 7.61212 9.65845 7.66516 9.57721 7.7228C9.50204 7.77405 9.42859 7.81676 9.36538 7.86972C9.35513 7.88168 9.34317 7.88168 9.33292 7.89193C9.26971 7.93464 9.19625 7.9876 9.13134 8.04055L9.11084 8.06105L8.95196 8.18747C8.93146 8.19943 8.90925 8.21993 8.88875 8.23018C8.8358 8.27289 8.78284 8.32585 8.72988 8.36685C8.71963 8.38905 8.69742 8.40101 8.68717 8.40955C8.62396 8.47447 8.56075 8.52743 8.49754 8.59064C8.48559 8.59064 8.48559 8.60089 8.47534 8.61114C8.4095 8.66868 8.34623 8.7291 8.28571 8.79222C8.27375 8.80247 8.27375 8.81272 8.2635 8.81272C8.2079 8.86715 8.15488 8.92415 8.10463 8.98355C8.08413 9.00405 8.05338 9.02455 8.03117 9.04505C7.97444 9.11217 7.91398 9.17605 7.85009 9.23639C7.83984 9.25689 7.81934 9.26885 7.80909 9.28764C7.72367 9.37305 7.65021 9.45847 7.5648 9.54389L7.53404 9.57464C7.36321 9.75572 7.18384 9.9351 6.9925 10.094C6.80288 10.2648 6.6013 10.422 6.39971 10.5603C5.99497 10.8495 5.55815 11.0908 5.09796 11.2796C4.87588 11.3752 4.64184 11.4606 4.4095 11.5341C3.96534 11.6298 3.50921 11.8091 3.118 11.8416C3.03259 11.8416 2.93863 11.8621 2.85321 11.8723L2.58842 11.9356L2.33388 12.0312C2.24846 12.0637 2.16475 12.1064 2.08105 12.1474C2.00588 12.2003 1.92217 12.2431 1.847 12.296C1.77163 12.3506 1.70079 12.4111 1.63517 12.4771C1.56171 12.5283 1.48655 12.6035 1.42334 12.6667C1.36013 12.7402 1.29692 12.8034 1.24396 12.8786C1.191 12.964 1.1278 13.0374 1.08509 13.1228C1.02944 13.1998 0.979757 13.2809 0.936462 13.3654C0.893754 13.4611 0.851046 13.5465 0.820296 13.6405C0.787837 13.7259 0.757087 13.8216 0.724629 13.9155C0.704129 14.0009 0.681921 14.0863 0.673379 14.1718C0.673379 14.1803 0.661421 14.1923 0.661421 14.2025C0.640921 14.2982 0.640921 14.4246 0.628962 14.4878C0.618712 14.563 0.608462 14.6245 0.608462 14.6996C0.606497 14.8839 0.649913 15.0657 0.734879 15.2292V15.2395C0.767337 15.3027 0.810046 15.3676 0.852754 15.4308C0.893754 15.494 0.938171 15.5572 0.989421 15.6204C1.04238 15.6734 1.10559 15.7383 1.1705 15.7913C1.23223 15.8532 1.2991 15.9098 1.37038 15.9604C1.62492 16.1825 1.68813 16.2559 2.01613 16.4251C2.06909 16.4575 2.12205 16.478 2.18696 16.5105C2.19721 16.5105 2.20746 16.5207 2.21771 16.5207C2.21771 16.5429 2.21771 16.5532 2.22796 16.5737C2.25269 16.7483 2.29858 16.9192 2.36463 17.0828C2.3988 17.146 2.4193 17.2092 2.45005 17.2724C2.462 17.2946 2.47225 17.3151 2.48421 17.3253C2.52521 17.4108 2.56792 17.4842 2.60892 17.5594L2.7678 17.7815C2.82075 17.8447 2.88567 17.9181 2.94888 17.9831C3.01209 18.0463 3.0753 18.0992 3.15046 18.1624C3.15046 18.1624 3.16071 18.1727 3.17096 18.1727C3.23417 18.2256 3.29738 18.2786 3.3623 18.3213C3.43596 18.373 3.51366 18.4187 3.59463 18.458C3.66809 18.5007 3.7535 18.5434 3.83721 18.5758C3.90547 18.6066 3.97637 18.6312 4.04905 18.6493C4.061 18.6596 4.07125 18.6596 4.09175 18.6698C4.13446 18.6818 4.18742 18.692 4.22842 18.7023C4.19767 19.2746 4.18742 19.8127 4.27284 20.004C4.3668 20.2158 4.83317 19.5701 5.29784 18.8287C5.23634 19.5598 5.19363 20.4174 5.29784 20.672C5.41571 20.9368 6.0495 20.1099 6.6013 19.1994C14.1094 17.4637 20.9598 22.6502 21.679 29.979C21.5424 28.8344 20.133 28.2006 19.4873 28.3595C19.1695 29.1419 18.6297 30.1481 17.7618 30.7733C17.8353 30.0729 17.8045 29.3554 17.6559 28.655C17.4188 29.63 16.9703 30.5409 16.3422 31.3234C15.3377 31.3969 14.3315 30.91 13.8019 30.1788C13.7592 30.1481 13.749 30.0849 13.7165 30.0422C13.6858 29.9687 13.6533 29.8936 13.6311 29.8201C13.6004 29.7492 13.5791 29.6745 13.5679 29.598C13.5576 29.5228 13.5576 29.4494 13.5576 29.364V29.2051C13.5703 29.13 13.588 29.0558 13.6106 28.983C13.6328 28.9096 13.6533 28.8361 13.6858 28.7609C13.7268 28.6875 13.7592 28.6123 13.8122 28.5388C13.9915 28.0298 13.9915 27.6163 13.6635 27.3738C13.5998 27.3322 13.5323 27.2967 13.462 27.2678C13.421 27.2576 13.368 27.2371 13.3253 27.2251L13.2399 27.1944C13.1674 27.1709 13.0931 27.1532 13.0178 27.1414C12.9456 27.1203 12.8709 27.1094 12.7957 27.109C12.7188 27.0969 12.6412 27.0901 12.5634 27.0885C12.5104 27.0885 12.4575 27.0987 12.4045 27.0987C12.3253 27.0983 12.2465 27.1092 12.1705 27.1312C12.097 27.1414 12.0235 27.1517 11.9484 27.1722C11.8728 27.1924 11.7986 27.2176 11.7263 27.2473C11.6528 27.2781 11.5896 27.3106 11.5145 27.343C11.4513 27.3738 11.388 27.4165 11.3129 27.4489C8.84604 29.0582 10.3186 32.8268 12.0013 33.9184C11.3658 34.0346 10.7201 34.1712 10.5407 34.3096L10.5185 34.3301C10.9746 34.6051 11.4513 34.8392 11.9484 35.0408C12.6266 35.2628 13.3458 35.4627 13.6635 35.5481V35.5584C14.5408 35.7385 15.438 35.8029 16.332 35.7497C21.023 35.4217 24.8668 31.853 25.5655 27.1517L25.6287 27.4267C25.6612 27.6181 25.7022 27.8196 25.7244 28.0195V28.0298C25.7449 28.1254 25.7551 28.2211 25.7671 28.3065V28.3475C25.7773 28.4432 25.7876 28.5388 25.7876 28.6243C25.7978 28.7404 25.8081 28.8566 25.8081 28.9728V29.1436C25.8081 29.1948 25.82 29.2581 25.82 29.311C25.82 29.3759 25.8081 29.4391 25.8081 29.5023V29.651C25.8081 29.7244 25.7978 29.7876 25.7978 29.8628C25.7978 29.9055 25.7978 29.9482 25.7876 29.9995C25.7876 30.0746 25.7773 30.1481 25.7773 30.2335C25.7671 30.2643 25.7671 30.2967 25.7671 30.3275L25.7329 30.5718C25.7329 30.6042 25.7329 30.635 25.7244 30.6674C25.7124 30.7733 25.6919 30.869 25.6817 30.9749V30.9954L25.6185 31.2927V31.3234L25.5553 31.6087C25.5553 31.6207 25.5433 31.6429 25.5433 31.6514C25.5238 31.7483 25.4993 31.8441 25.4698 31.9384V31.9692C25.4374 32.0751 25.4066 32.1708 25.3844 32.2664C25.3742 32.2767 25.3742 32.2869 25.3742 32.2869L25.2785 32.6047C25.2375 32.7106 25.205 32.8063 25.1623 32.9122C25.1196 33.0181 25.0889 33.124 25.0462 33.2197C25.0035 33.3256 24.9608 33.4196 24.9198 33.5272H24.9078C24.8668 33.6211 24.8224 33.7271 24.7711 33.8227C24.7622 33.848 24.7514 33.8726 24.7387 33.8962C24.7284 33.9064 24.7284 33.9184 24.7182 33.9286C24.0179 35.3306 22.9986 36.5488 21.7423 37.4854C21.6568 37.5383 21.5731 37.6033 21.4877 37.6665C21.4672 37.687 21.4365 37.6972 21.4143 37.7177C21.3385 37.7737 21.261 37.8273 21.1819 37.8783L21.2127 37.9415H21.2246L21.6688 37.8783H21.679C21.9541 37.8356 22.2291 37.7826 22.5042 37.7297C22.5793 37.7194 22.663 37.6972 22.7382 37.6767L22.8868 37.6443C22.9603 37.634 23.0338 37.6135 23.1089 37.6033C23.1721 37.5811 23.2353 37.5691 23.2985 37.5503C24.3577 37.2941 25.3844 36.9456 26.3701 36.5338C24.6683 38.8518 22.4051 40.6988 19.793 41.9014C21.0128 41.816 22.2291 41.6161 23.4045 41.2762C27.6586 40.0254 31.2516 37.1545 33.4102 33.2812C32.9742 35.7331 32.0017 38.0583 30.5624 40.0906C31.5886 39.4137 32.5368 38.6253 33.3897 37.7399C35.7597 35.2656 37.3157 32.1251 37.8484 28.7404C38.2072 30.4146 38.3131 32.14 38.1559 33.8432C45.799 23.1815 38.7897 12.1269 35.8565 9.21589C35.8463 9.19368 35.836 9.18343 35.836 9.16293C35.8258 9.17318 35.8258 9.17318 35.8258 9.18343C35.8258 9.17318 35.8258 9.17318 35.8138 9.16293C35.8138 9.28935 35.8035 9.41576 35.7933 9.54389C35.7639 9.78106 35.7286 10.0175 35.6874 10.2528C35.6361 10.4852 35.5712 10.7192 35.508 10.9533C35.4328 11.1753 35.3491 11.4077 35.2518 11.6298C35.155 11.8491 35.0495 12.0645 34.9357 12.2755C34.6993 12.6906 34.4266 13.0839 34.1208 13.4508C33.962 13.6405 33.7928 13.8096 33.622 13.9804C33.5222 14.0717 33.4196 14.16 33.3145 14.2452L33.0719 14.4571C32.8829 14.6062 32.6849 14.7437 32.4791 14.8688C32.2768 14.9991 32.0681 15.1194 31.8539 15.2292C31.6318 15.3351 31.4097 15.4308 31.1876 15.5265C30.7353 15.6985 30.2673 15.8261 29.7902 15.9074C29.5459 15.9501 29.3033 15.9706 29.0693 15.9928C28.9004 16.0048 28.7312 16.0116 28.5619 16.0133C28.3211 16.01 28.0805 15.9958 27.841 15.9706C27.5991 15.9517 27.3589 15.9163 27.1218 15.8647C26.8817 15.8211 26.6448 15.7612 26.4128 15.6853H26.4009C26.6349 15.6631 26.8673 15.6426 27.1013 15.5999C27.5781 15.5173 28.046 15.3897 28.4987 15.219C28.731 15.1336 28.9531 15.0276 29.165 14.9217C29.387 14.8158 29.5886 14.6996 29.8005 14.5732C30.002 14.4366 30.2019 14.2982 30.3933 14.1496C30.5846 14.0009 30.764 13.8421 30.9331 13.6729C31.1125 13.5141 31.2713 13.3347 31.4302 13.1536C31.5891 12.964 31.7377 12.7726 31.8744 12.583C31.8966 12.5506 31.9188 12.5078 31.9393 12.4771C32.0452 12.3063 32.1511 12.1371 32.2468 11.968C32.4802 11.5466 32.6713 11.1031 32.8174 10.6441C32.8925 10.422 32.9455 10.1896 32.9985 9.9556C33.0412 9.71301 33.0839 9.48068 33.1044 9.24664C33.1249 9.00405 33.1471 8.75976 33.1471 8.52743C33.1471 8.3566 33.1351 8.18747 33.1249 8.01835C33.1038 7.7812 33.0753 7.54476 33.0395 7.30939C32.9983 7.07072 32.9458 6.83414 32.8823 6.60043C32.8071 6.37835 32.7337 6.1443 32.6483 5.92222C32.5628 5.70014 32.4586 5.47805 32.3527 5.26622C32.2348 5.05439 32.1187 4.84255 31.9923 4.64097C31.857 4.44306 31.7157 4.24936 31.5686 4.06014C31.4097 3.87905 31.2508 3.69797 31.0817 3.5186C30.9926 3.42771 30.9009 3.33941 30.8067 3.2538C30.3283 2.8831 29.8329 2.5346 29.3341 2.21685C29.2657 2.17733 29.1949 2.14196 29.1223 2.11093C28.8082 1.91863 28.4698 1.76754 28.116 1.66505Z" />
        </g>
    </g>
    <defs>
        <clipPath id="clip0_716_1387">
            <rect width="41" height="41" transform="translate(0.333496 0.962158)" />
        </clipPath>
        <clipPath id="clip1_716_1387">
            <rect width="41" height="41" transform="translate(0.608398 0.981689)" />
        </clipPath>
    </defs>
</svg>