<svg width="24" height="24" viewBox="0 0 24 24" fill="none" xmlns="http://www.w3.org/2000/svg">
<g clip-path="url(#clip0_498_1038)">
<path d="M20.247 1.1925L20.4705 0.968996C20.6388 0.800872 20.8384 0.667527 21.0582 0.576576C21.278 0.485625 21.5135 0.43885 21.7513 0.438919C21.9891 0.438989 22.2246 0.485903 22.4443 0.576982C22.664 0.668062 22.8637 0.801523 23.0318 0.969746C23.1999 1.13797 23.3332 1.33766 23.4242 1.55742C23.5151 1.77717 23.5619 2.01269 23.5619 2.25053C23.5618 2.48836 23.5149 2.72385 23.4238 2.94356C23.3327 3.16326 23.1993 3.36287 23.031 3.531L22.8075 3.753C23.1899 4.18179 23.3937 4.74059 23.3772 5.31484C23.3608 5.88909 23.1253 6.4353 22.719 6.8415L7.28103 22.281C7.18452 22.377 7.0637 22.4449 6.93153 22.4775L0.931529 23.9775C0.805968 24.0088 0.674453 24.007 0.549768 23.9724C0.425084 23.9378 0.311472 23.8715 0.219975 23.7801C0.128479 23.6886 0.0622104 23.5749 0.0276123 23.4503C-0.00698583 23.3256 -0.00873693 23.1941 0.0225292 23.0685L1.52253 17.0685C1.55535 16.9369 1.62326 16.8166 1.71903 16.7205L16.182 2.2575C16.0374 2.15569 15.8614 2.10829 15.6852 2.12366C15.509 2.13903 15.3439 2.21618 15.219 2.3415L10.281 7.281C10.2113 7.35073 10.1285 7.40604 10.0374 7.44378C9.94629 7.48152 9.84864 7.50094 9.75003 7.50094C9.65141 7.50094 9.55376 7.48152 9.46265 7.44378C9.37154 7.40604 9.28876 7.35073 9.21903 7.281C9.1493 7.21127 9.09398 7.12848 9.05624 7.03737C9.0185 6.94626 8.99908 6.84861 8.99908 6.75C8.99908 6.65138 9.0185 6.55373 9.05624 6.46262C9.09398 6.37151 9.1493 6.28873 9.21903 6.219L14.16 1.281C14.5665 0.874519 15.1131 0.639028 15.6877 0.622849C16.2623 0.606671 16.8213 0.811033 17.25 1.194C17.6622 0.825655 18.1955 0.621914 18.7482 0.621638C19.301 0.621361 19.8345 0.824567 20.247 1.1925ZM19.281 2.3415C19.1404 2.20089 18.9497 2.12191 18.7508 2.12191C18.5519 2.12191 18.3612 2.20089 18.2205 2.3415L2.92503 17.634L1.77903 22.2195L6.36453 21.0735L21.66 5.781C21.7299 5.71133 21.7853 5.62856 21.8231 5.53745C21.8609 5.44633 21.8804 5.34865 21.8804 5.25C21.8804 5.15135 21.8609 5.05366 21.8231 4.96255C21.7853 4.87143 21.7299 4.78867 21.66 4.719L19.281 2.3415Z" fill="#732580"/>
</g>
<defs>
<clipPath id="clip0_498_1038">
<rect width="24" height="24" fill="white"/>
</clipPath>
</defs>
</svg>
