<svg width="24" height="24" viewBox="0 0 24 24" fill="none" xmlns="http://www.w3.org/2000/svg">
<path opacity="0.5" d="M22 10.5V12C22 16.714 22 19.071 20.535 20.535C19.072 22 16.714 22 12 22C7.286 22 4.929 22 3.464 20.535C2 19.072 2 16.714 2 12C2 7.286 2 4.929 3.464 3.464C4.93 2 7.286 2 12 2H13.5" stroke="#732580" stroke-width="1.5" stroke-linecap="round"/>
<path d="M17.3 2.80599L16.652 3.45599L10.687 9.41999C10.283 9.82399 10.081 10.026 9.90699 10.249C9.70199 10.511 9.52699 10.796 9.38299 11.097C9.26199 11.352 9.17199 11.623 8.99099 12.165L8.41199 13.9L8.03799 15.023C7.99415 15.1539 7.98769 15.2944 8.01934 15.4288C8.051 15.5632 8.11951 15.6861 8.21718 15.7836C8.31485 15.8812 8.4378 15.9496 8.5722 15.9811C8.70661 16.0126 8.84714 16.006 8.97799 15.962L10.1 15.588L11.835 15.009C12.377 14.829 12.648 14.739 12.903 14.617C13.204 14.473 13.489 14.297 13.751 14.093C13.974 13.919 14.176 13.717 14.581 13.313L20.545 7.34799L21.194 6.69899C21.7102 6.18262 22.0002 5.48231 22.0001 4.75214C22 4.02197 21.7099 3.32174 21.1935 2.80549C20.6771 2.28925 19.9768 1.99928 19.2466 1.99937C18.5165 1.99947 17.8162 2.28962 17.3 2.80599Z" stroke="#732580" stroke-width="1.5"/>
<path opacity="0.5" d="M16.652 3.455C16.652 3.455 16.733 4.834 17.95 6.05C19.166 7.267 20.545 7.348 20.545 7.348M10.1 15.588L8.41302 13.9" stroke="#732580" stroke-width="1.5"/>
</svg>
