<svg width="41" height="41" viewBox="0 0 41 41" fill="currentColor" xmlns="http://www.w3.org/2000/svg">
    <path
        d="M18.9676 17.8315C18.445 18.1333 18.0237 18.5832 17.7568 19.1244C17.4899 19.6656 17.3895 20.2737 17.4683 20.872C17.547 21.4702 17.8014 22.0317 18.1992 22.4854C18.5971 22.9391 19.1205 23.2646 19.7034 23.4208C20.2862 23.5771 20.9023 23.5569 21.4737 23.363C22.0451 23.1691 22.5462 22.8102 22.9136 22.3315C23.281 21.8528 23.4982 21.276 23.5378 20.6739C23.5773 20.0718 23.4375 19.4714 23.1359 18.9488C22.9356 18.6017 22.6689 18.2975 22.351 18.0535C22.0331 17.8095 21.6702 17.6305 21.2832 17.5267C20.8961 17.423 20.4924 17.3965 20.095 17.4488C19.6977 17.5011 19.3146 17.6312 18.9676 17.8315ZM32.6428 21.1423C32.4423 20.9134 32.2311 20.6839 32.009 20.4538C32.1639 20.2898 32.3142 20.1264 32.46 19.9635C35.2019 16.8817 36.3601 13.7896 35.2873 11.9327C34.2589 10.1509 31.1992 9.61958 27.3674 10.3644C26.9905 10.4384 26.6152 10.5216 26.2416 10.6138C26.1699 10.3678 26.0942 10.123 26.0144 9.87925C24.7144 5.96204 22.6149 3.41492 20.4692 3.41663C18.4124 3.41663 16.4239 5.80317 15.1546 9.49488C15.0293 9.85932 14.9137 10.226 14.8078 10.595C14.5584 10.5335 14.3078 10.4766 14.0561 10.4242C10.0142 9.59567 6.75982 10.1423 5.68869 12.0027C4.66198 13.7845 5.73482 16.7006 8.29902 19.6424C8.55413 19.9328 8.81608 20.2175 9.08486 20.4965C8.76711 20.8211 8.46815 21.1474 8.18798 21.472C5.68527 24.3728 4.67394 27.2393 5.69894 29.0143C6.75811 30.849 9.96636 31.4487 13.8733 30.6799C14.1899 30.6173 14.5048 30.5467 14.818 30.4681C14.9319 30.8678 15.0578 31.2647 15.1956 31.6588C16.4597 35.2753 18.4363 37.5833 20.4863 37.5833C22.6046 37.5833 24.7264 35.1011 26.0127 31.3325C26.1152 31.0352 26.2092 30.726 26.3014 30.4083C26.7057 30.5085 27.1129 30.5973 27.5229 30.6748C31.2864 31.3872 34.2742 30.8285 35.2975 29.0519C36.355 27.2154 35.2634 24.137 32.6428 21.1423ZM6.95286 12.7305C7.61227 11.5859 10.2721 11.1383 13.7623 11.8558C13.9855 11.9013 14.2127 11.9526 14.4439 12.0095C14.1027 13.5169 13.8619 15.0452 13.723 16.5845C12.4644 17.4695 11.2643 18.435 10.1304 19.475C9.88094 19.2164 9.63779 18.9516 9.4009 18.6806C7.20227 16.1625 6.33444 13.805 6.95286 12.7305ZM13.5931 22.5158C12.7219 21.8547 11.9104 21.1782 11.1741 20.4983C11.9087 19.8218 12.7202 19.1487 13.5914 18.4893C13.5596 19.1601 13.5442 19.8314 13.5453 20.5034C13.5453 21.1753 13.5613 21.8461 13.5931 22.5158ZM13.5931 29.2466C12.1124 29.5764 10.5836 29.6308 9.08315 29.4072C8.6718 29.375 8.27143 29.2588 7.90678 29.0658C7.54213 28.8727 7.22095 28.6069 6.96311 28.2848C6.33957 27.2086 7.15273 24.9058 9.29327 22.4253C9.56205 22.1143 9.83994 21.8114 10.1269 21.5164C11.2614 22.5628 12.4639 23.5329 13.7264 24.4206C13.8667 25.9793 14.1098 27.527 14.4542 29.0536C14.1694 29.1253 13.8819 29.1903 13.5914 29.2483L13.5931 29.2466ZM25.7223 15.5133C25.1495 15.1523 24.5698 14.8032 23.9832 14.4661C23.4047 14.1336 22.8199 13.813 22.2288 13.5043C23.2005 13.0939 24.192 12.7319 25.1996 12.4195C25.4257 13.4414 25.6002 14.4739 25.7223 15.5133ZM16.5366 9.96808C17.6231 6.80767 19.2324 4.87725 20.4726 4.87725C21.7931 4.87554 23.5083 6.958 24.6307 10.3388C24.7036 10.5597 24.7719 10.7818 24.8357 11.005C23.3623 11.4617 21.9208 12.0152 20.5204 12.6621C19.1248 12.0073 17.6865 11.4474 16.2154 10.9863C16.3145 10.6446 16.4216 10.3052 16.5366 9.96808ZM15.8533 12.4008C16.8562 12.7164 17.8426 13.0825 18.8087 13.4975C17.6106 14.1148 16.4444 14.7873 15.31 15.515C15.4467 14.4251 15.6295 13.3813 15.8533 12.4008ZM15.3117 25.4866C15.8778 25.8499 16.4523 26.199 17.0354 26.5338C17.6299 26.8755 18.2318 27.2035 18.8411 27.5178C17.8681 27.9472 16.8737 28.3264 15.8618 28.6538C15.6267 27.6083 15.4431 26.5518 15.3117 25.4883V25.4866ZM24.6324 30.861C24.1779 32.308 23.461 33.659 22.5175 34.8465C22.2845 35.187 21.9842 35.476 21.6352 35.6958C21.2861 35.9156 20.8957 36.0614 20.488 36.1244C19.2426 36.1244 17.6556 34.2708 16.5759 31.177C16.4483 30.8115 16.331 30.4425 16.224 30.07C17.702 29.5933 19.146 29.0168 20.5461 28.3446C21.9583 28.9967 23.4118 29.5554 24.8972 30.0171C24.8152 30.3007 24.7269 30.582 24.6324 30.861ZM25.2508 28.5992C24.2301 28.2804 23.2256 27.9121 22.2407 27.4956C22.8204 27.1915 23.4041 26.8698 23.9918 26.5304C24.5954 26.1819 25.1831 25.8248 25.7548 25.4593C25.6406 26.5138 25.4724 27.5618 25.2508 28.5992ZM26.0144 20.4965C26.0144 21.5341 25.982 22.5705 25.9171 23.6057C25.0749 24.1763 24.1865 24.7332 23.2623 25.2662C22.3398 25.7975 21.4293 26.2861 20.5341 26.7285C19.5922 26.2775 18.6686 25.7912 17.7632 25.2696C16.8635 24.7514 15.9842 24.1996 15.1255 23.6143C15.0458 22.5779 15.0059 21.5403 15.0059 20.5017C15.0059 19.4641 15.0447 18.4272 15.1221 17.3908C16.8394 16.2183 18.6429 15.1773 20.517 14.2765C21.4464 14.7286 22.3592 15.2132 23.2555 15.7303C24.1552 16.2473 25.0378 16.7934 25.9034 17.3686C25.9774 18.4095 26.0144 19.4522 26.0144 20.4965ZM27.6476 11.796C30.931 11.1588 33.4047 11.5876 34.0248 12.6621C34.6859 13.8067 33.7395 16.3316 31.3701 18.9932C31.2391 19.1401 31.1036 19.2876 30.9635 19.4357C29.8095 18.3924 28.5857 17.429 27.3008 16.552C27.1714 15.0298 26.9403 13.518 26.6089 12.0266C26.962 11.9401 27.3082 11.8632 27.6476 11.796ZM27.4255 18.4329C28.2926 19.0657 29.1262 19.7431 29.9231 20.4624C29.1299 21.1932 28.2991 21.882 27.4341 22.526C27.4603 21.8495 27.4734 21.173 27.4734 20.4965C27.4734 19.8087 27.4574 19.1208 27.4255 18.4329ZM34.0351 28.3224C33.4132 29.4004 31.0147 29.8497 27.7945 29.2415C27.4255 29.172 27.0474 29.0889 26.6602 28.9921C26.9835 27.4815 27.2044 25.9507 27.3213 24.4103C28.604 23.5186 29.8237 22.5397 30.972 21.4805C31.1736 21.689 31.3649 21.8962 31.546 22.1024C32.5728 23.2189 33.3853 24.5149 33.9428 25.9256C34.1213 26.2976 34.2215 26.7022 34.2374 27.1145C34.2532 27.5267 34.1844 27.9378 34.0351 28.3224Z" />
</svg>