<svg width="24" height="24" viewBox="0 0 24 24" fill="currentColor" xmlns="http://www.w3.org/2000/svg">
    <g clip-path="url(#clip0_801_483)">
        <path
            d="M11.5914 0.00179059C10.9876 0.0135345 10.3912 0.0817707 9.81091 0.218445L9.35834 0.381038C8.45282 0.705615 7.69785 1.19197 7.24509 1.84093L6.94325 2.32769L4.67908 6.54497L4.71035 6.55125C3.80879 7.73029 3.76696 9.40015 4.67908 10.9248C5.01897 11.3997 5.44649 11.822 5.92901 12.1871L3.01896 13.1959L0 18.8734C0 18.8734 8.00006 25.3617 14.1887 23.7397L14.6415 23.5775C15.6442 23.2606 16.3922 22.6704 16.8427 21.9439L16.9056 21.9552L19.9244 16.1156C20.5281 14.9801 20.3774 13.6826 19.6226 12.3849C19.2376 11.8743 18.7902 11.4218 18.2926 11.0398L21.2831 9.95151L24 5.08528C24 5.08528 17.4296 -0.110384 11.5914 0.00179059Z" />
    </g>
    <defs>
        <clipPath id="clip0_801_483">
            <rect width="24" height="24" fill="white" />
        </clipPath>
    </defs>
</svg>