<svg width="41" height="42" viewBox="0 0 41 42" fill="currentColor" xmlns="http://www.w3.org/2000/svg">
    <g clip-path="url(#clip0_716_1394)">
        <path
            d="M20.4412 11.2317C15.88 11.2317 13.0442 13.5038 11.8996 18.065C13.6079 15.7929 15.6067 14.9388 17.8787 15.5025C19.1771 15.8271 20.1167 16.7667 21.1417 17.8088C22.8158 19.5171 24.7121 21.4817 28.9829 21.4817C33.5442 21.4817 36.38 19.2096 37.5246 14.6484C35.8162 16.9204 33.8175 17.7746 31.5454 17.2109C30.2471 16.8863 29.3246 15.9467 28.2825 14.9046C26.6083 13.1963 24.7121 11.2317 20.4412 11.2317ZM11.8996 21.4817C7.33833 21.4817 4.50249 23.7538 3.35791 28.315C5.06624 26.0429 7.06499 25.1888 9.33708 25.7525C10.6354 26.0771 11.5579 27.0167 12.6 28.0588C14.2742 29.7671 16.1704 31.7317 20.4412 31.7317C25.0025 31.7317 27.8383 29.4596 28.9829 24.8984C27.2746 27.1704 25.2758 28.0246 23.0037 27.4609C21.7054 27.1363 20.7829 26.1967 19.7408 25.1546C18.0667 23.4463 16.1704 21.4817 11.8996 21.4817Z" />
    </g>
    <defs>
        <clipPath id="clip0_716_1394">
            <rect width="41" height="41" transform="translate(0 0.962158)" />
        </clipPath>
    </defs>
</svg>