<svg width="30" height="35" viewBox="0 0 30 35" fill="currentColor" xmlns="http://www.w3.org/2000/svg">
    <path
        d="M10.6374 28.652H10.5374C8.52288 28.6324 6.53746 28.1145 4.72493 27.1358C4.39152 26.9615 4.117 26.673 3.94156 26.3126C3.76612 25.9522 3.69896 25.5387 3.74993 25.1327C3.80536 24.724 3.97542 24.3452 4.23581 24.0504C4.49621 23.7556 4.83364 23.56 5.19993 23.4913C6.32319 23.3245 7.40379 22.9032 8.37493 22.2533C6.68888 20.7863 5.39087 18.8391 4.61845 16.6179C3.84604 14.3968 3.628 11.9844 3.98743 9.6366C4.03617 9.26471 4.17989 8.91623 4.40149 8.63263C4.62309 8.34904 4.91325 8.14226 5.23743 8.03691C5.55282 7.92668 5.89036 7.92197 6.20814 8.02336C6.52592 8.12476 6.80994 8.32778 7.02493 8.60723C7.75493 9.67246 8.6723 10.561 9.72106 11.2187C10.7698 11.8764 11.928 12.2894 13.1249 12.4326C13.1821 10.7937 13.815 9.24532 14.8874 8.12037C15.4229 7.54973 16.0551 7.1034 16.7472 6.80739C17.4393 6.51137 18.1773 6.37159 18.9184 6.39619C19.6595 6.42079 20.3888 6.60928 21.0638 6.95067C21.7388 7.29206 22.3459 7.77953 22.8499 8.38467C22.9812 8.51385 23.1444 8.59618 23.3182 8.62098C23.4921 8.64578 23.6686 8.61192 23.8249 8.52377C24.123 8.36735 24.4548 8.30846 24.7818 8.35399C25.1088 8.39952 25.4174 8.54758 25.6716 8.7809C25.9258 9.01422 26.1152 9.32318 26.2176 9.67173C26.32 10.0203 26.3312 10.394 26.2499 10.7494C25.9616 12.0711 25.4154 13.3059 24.6499 14.3661C24.4812 18.3233 22.9135 22.0457 20.2886 24.7218C17.6637 27.3979 14.1945 28.8107 10.6374 28.652ZM10.6374 25.87H10.7374C12.1908 25.9256 13.6396 25.6596 14.9998 25.0875C16.3601 24.5153 17.6048 23.6484 18.6617 22.5369C19.7187 21.4254 20.5668 20.0915 21.157 18.6125C21.7472 17.1335 22.0677 15.5389 22.0999 13.921C22.1206 13.4776 22.2849 13.0575 22.5624 12.7386C22.8673 12.3091 23.1273 11.8424 23.3374 11.3476C22.8871 11.3485 22.4417 11.2437 22.0303 11.04C21.6189 10.8362 21.2507 10.5381 20.9499 10.1652C20.6607 9.84602 20.3171 9.59428 19.9394 9.42469C19.5616 9.25511 19.1572 9.17109 18.7499 9.17756C18.3386 9.16572 17.9291 9.24442 17.5452 9.40913C17.1612 9.57384 16.8102 9.82132 16.5124 10.1374C16.1107 10.5616 15.8161 11.0959 15.6581 11.6867C15.5002 12.2774 15.4844 12.904 15.6124 13.5037L15.9374 15.0894L14.4749 15.2007C12.9763 15.3367 11.469 15.1086 10.0574 14.5321C8.64589 13.9557 7.36379 13.0447 6.29993 11.8623C6.2543 13.6934 6.66593 15.5028 7.48905 17.0892C8.31217 18.6756 9.51452 19.9768 10.9624 20.8483L12.1499 21.5995L11.3624 22.8514C10.5108 24.0943 9.34391 25.0246 8.01243 25.5222C8.86657 25.7604 9.74439 25.8773 10.6249 25.87H10.6374Z" />
</svg>