<svg width="42" height="42" viewBox="0 0 42 42" fill="currentColor" xmlns="http://www.w3.org/2000/svg">
    <g clip-path="url(#clip0_716_1390)">
        <g clip-path="url(#clip1_716_1390)">
            <g clip-path="url(#clip2_716_1390)">
                <path
                    d="M1.21289 5.46606C1.21289 2.99069 3.22189 0.981689 5.69727 0.981689H37.7285C40.2039 0.981689 42.2129 2.99069 42.2129 5.46606V10.5911C42.2129 11.1008 42.0104 11.5896 41.65 11.95C41.2896 12.3105 40.8007 12.5129 40.291 12.5129C39.7813 12.5129 39.2925 12.3105 38.932 11.95C38.5716 11.5896 38.3691 11.1008 38.3691 10.5911V5.46606C38.3691 5.29616 38.3016 5.13321 38.1815 5.01307C38.0614 4.89293 37.8984 4.82544 37.7285 4.82544H5.69727C5.52736 4.82544 5.36442 4.89293 5.24428 5.01307C5.12414 5.13321 5.05664 5.29616 5.05664 5.46606V37.4973C5.05664 37.8509 5.34364 38.1379 5.69727 38.1379H40.291C40.8007 38.1379 41.2896 38.3404 41.65 38.7008C42.0104 39.0613 42.2129 39.5501 42.2129 40.0598C42.2129 40.5695 42.0104 41.0584 41.65 41.4188C41.2896 41.7792 40.8007 41.9817 40.291 41.9817H5.69727C4.50794 41.9817 3.36732 41.5092 2.52633 40.6682C1.68535 39.8273 1.21289 38.6866 1.21289 37.4973L1.21289 5.46606ZM13.3848 17.6379C13.3848 17.1282 13.5872 16.6394 13.9477 16.279C14.3081 15.9185 14.7969 15.7161 15.3066 15.7161H24.916C25.4257 15.7161 25.9146 15.9185 26.275 16.279C26.6354 16.6394 26.8379 17.1282 26.8379 17.6379C26.8379 18.1477 26.6354 18.6365 26.275 18.9969C25.9146 19.3573 25.4257 19.5598 24.916 19.5598H22.3535V33.0129C22.3535 33.5227 22.151 34.0115 21.7906 34.3719C21.4302 34.7323 20.9414 34.9348 20.4316 34.9348C19.9219 34.9348 19.4331 34.7323 19.0727 34.3719C18.7122 34.0115 18.5098 33.5227 18.5098 33.0129V19.5598H15.3066C14.7969 19.5598 14.3081 19.3573 13.9477 18.9969C13.5872 18.6365 13.3848 18.1477 13.3848 17.6379ZM30.1076 17.8429C31.1788 16.5668 32.8623 15.7161 35.166 15.7161C37.3057 15.7161 38.9201 16.4489 40.0091 17.5995C40.3466 17.9721 40.5247 18.462 40.5052 18.9644C40.4857 19.4667 40.2701 19.9414 39.9047 20.2866C39.5394 20.6319 39.0532 20.8202 38.5506 20.8113C38.048 20.8024 37.5689 20.5969 37.216 20.2389C36.9341 19.9416 36.3704 19.5598 35.166 19.5598C33.8848 19.5598 33.321 19.9903 33.0494 20.3158C32.778 20.6456 32.6215 21.0549 32.6035 21.4817C32.6035 21.7482 32.7137 22.2504 33.0494 22.6476C33.3236 22.9731 33.8822 23.4036 35.166 23.4036C35.3608 23.4036 35.5478 23.4318 35.7246 23.4856C37.4236 23.7264 38.7074 24.4849 39.5838 25.5304C40.5934 26.7348 40.9316 28.1544 40.9316 29.1692C40.9316 30.1839 40.5934 31.6036 39.5838 32.8079C38.5126 34.0841 36.8291 34.9348 34.5254 34.9348C32.3857 34.9348 30.7713 34.2019 29.6823 33.0514C29.3448 32.6788 29.1667 32.1888 29.1862 31.6865C29.2057 31.1842 29.4213 30.7095 29.7867 30.3643C30.1521 30.019 30.6382 29.8306 31.1408 29.8396C31.6434 29.8485 32.1225 30.054 32.4754 30.412C32.7573 30.7093 33.321 31.0911 34.5254 31.0911C35.8066 31.0911 36.3704 30.6606 36.642 30.3351C36.9134 30.0053 37.0699 29.596 37.0879 29.1692C37.0879 28.9027 36.9777 28.4004 36.642 28.0033C36.3678 27.6778 35.8092 27.2473 34.5254 27.2473C34.3362 27.2477 34.1479 27.2201 33.9668 27.1653C32.2678 26.9219 30.984 26.1659 30.1076 25.1204C29.2538 24.0983 28.7779 22.8134 28.7598 21.4817C28.7598 20.4669 29.098 19.0473 30.1076 17.8429Z" />
            </g>
        </g>
    </g>
    <defs>
        <clipPath id="clip0_716_1390">
            <rect width="41" height="41" transform="translate(0.666504 0.962158)" />
        </clipPath>
        <clipPath id="clip1_716_1390">
            <rect width="41" height="41" transform="translate(1.10791 0.981689)" />
        </clipPath>
        <clipPath id="clip2_716_1390">
            <rect width="41" height="41" transform="translate(1.21289 0.981689)" />
        </clipPath>
    </defs>
</svg>