<svg width="18" height="22" viewBox="0 0 18 22" fill="none" xmlns="http://www.w3.org/2000/svg">
<path d="M3.74787 20V2.54545H9.38139C10.62 2.54545 11.6541 2.76989 12.4837 3.21875C13.3189 3.66193 13.9467 4.27841 14.3672 5.06818C14.7933 5.85227 15.0064 6.75284 15.0064 7.76989C15.0064 8.78693 14.7933 9.68466 14.3672 10.4631C13.9467 11.2415 13.3217 11.8494 12.4922 12.2869C11.6626 12.7244 10.6342 12.9432 9.40696 12.9432H4.60866V11.4858H9.36435C10.2734 11.4858 11.0291 11.3352 11.6314 11.0341C12.2393 10.733 12.6911 10.304 12.9865 9.74716C13.2876 9.19034 13.4382 8.53125 13.4382 7.76989C13.4382 7.00852 13.2876 6.34375 12.9865 5.77557C12.6854 5.2017 12.2308 4.75852 11.6229 4.44602C11.0206 4.13352 10.2592 3.97727 9.33878 3.97727H5.34162V20H3.74787ZM11.4439 12.125L15.7393 20H13.8984L9.6456 12.125H11.4439Z" fill="url(#paint0_linear_22_1256)"/>
<defs>
<linearGradient id="paint0_linear_22_1256" x1="9.3913" y1="12" x2="9.3913" y2="23.5" gradientUnits="userSpaceOnUse">
<stop stop-color="#732580"/>
<stop offset="1" stop-color="#0B192E"/>
</linearGradient>
</defs>
</svg>
